<svg id="Layer_1" data-name="Layer 1" xmlns="http://www.w3.org/2000/svg" xmlns:xlink="http://www.w3.org/1999/xlink" viewBox="0 0 297.83 107.22"><defs><style>.cls-1{fill:none;}.cls-2{clip-path:url(#clip-path);}.cls-3{fill:#e36ca4;}.cls-4{fill:#ff993b;}.cls-5{fill:#5db9bb;}.cls-6{fill:#c1c048;}.cls-7{clip-path:url(#clip-path-2);}.cls-8{fill:#2c5882;}.cls-9{fill:#1d5784;}</style><clipPath id="clip-path" transform="translate(-39.73 -136.38)"><rect class="cls-1" x="81.87" y="172.09" width="99.46" height="59.67"/></clipPath><clipPath id="clip-path-2" transform="translate(-39.73 -136.38)"><rect class="cls-1" x="142.48" y="136.24" width="70.17" height="73.47"/></clipPath></defs><g class="cls-2"><path class="cls-3" d="M152.92,200.41H153a5.13,5.13,0,0,1,5.13,5.13,5,5,0,0,1-1.16,3.2A35.13,35.13,0,0,0,152.92,200.41ZM158.27,214c-.16-.95-.34-1.91-.58-2.84a7.36,7.36,0,0,0-4.69-13,7.83,7.83,0,0,0-1.55.16c-.6-.76-1.21-1.49-1.87-2.21a9.78,9.78,0,0,1,3.42-.62A10,10,0,0,1,158.27,214Zm-32.19-28.68c-.45,0-.93,0-1.39,0a5.05,5.05,0,0,1,3.56-1.44,5.16,5.16,0,0,1,4.25,2.25A32.32,32.32,0,0,0,126.08,185.35ZM138.21,188a10,10,0,0,0-19.48-2.09c1-.2,2-.34,3.06-.46a7.36,7.36,0,0,1,13.52,1.44C136.28,187.25,137.25,187.63,138.21,188Z" transform="translate(-39.73 -136.38)"/><path class="cls-4" d="M107.78,216.18a1.77,1.77,0,1,0,1.76-1.77A1.77,1.77,0,0,0,107.78,216.18Zm-2.37,7.07a1.77,1.77,0,1,0,1.77-1.77A1.77,1.77,0,0,0,105.41,223.25Zm-4.71-4.71a1.77,1.77,0,1,0,1.77-1.77A1.77,1.77,0,0,0,100.7,218.54Zm2.5,10.84h58.64a12.12,12.12,0,0,1-4.43-9.37v-.39c0-17.7-14.07-32.49-31.35-33A32.31,32.31,0,0,0,92.91,219,10.35,10.35,0,0,0,103.2,229.38Zm-2.36-35.49A34.53,34.53,0,0,1,126.08,184c18.73.52,33.92,16.48,33.92,35.61V220a9.24,9.24,0,1,0,18.48,0v-.47a33.11,33.11,0,0,0-22.56-31.43c-.4-1-.7-2.05-1-3.08a35.81,35.81,0,0,1,26.4,34.51V220a11.79,11.79,0,0,1-11.93,11.75H103.2a12.9,12.9,0,0,1-13-12.88A34.49,34.49,0,0,1,100.84,193.89Z" transform="translate(-39.73 -136.38)"/><circle class="cls-5" cx="107.53" cy="51.53" r="1.77"/><path class="cls-6" d="M173.61,221a1.33,1.33,0,0,0,1.33-1.33c0-2.59-1.73-4.7-3.39-6.72a12.33,12.33,0,0,1-2.61-4.06,12.38,12.38,0,0,1,.32-5c.48-2.54,1-5.19-.24-7.37s-3.74-3.22-6.16-4.22a12.49,12.49,0,0,1-4.3-2.34,12.6,12.6,0,0,1-2.08-4.46c-.84-2.48-1.69-5-3.84-6.38s-4.81-1-7.37-.63a13.18,13.18,0,0,1-5,.08,12.16,12.16,0,0,1-3.92-2.73c-2-1.75-4.06-3.57-6.66-3.63s-4.89,1.63-7,3.3a13,13,0,0,1-4.17,2.52,13.58,13.58,0,0,1-5.07-.3c-2.6-.45-5.31-.93-7.55.3s-3.3,3.84-4.3,6.32a13.1,13.1,0,0,1-2.36,4.39A12.85,12.85,0,0,1,94.79,191c-2.5.94-5.1,1.91-6.42,4.14s-.89,4.91-.49,7.55a13.58,13.58,0,0,1,.18,5.07,13.2,13.2,0,0,1-2.65,4.11c-1.71,2.11-3.48,4.28-3.48,6.94a1.34,1.34,0,0,0,2.67,0c0-1.73,1.39-3.44,2.88-5.25a14.88,14.88,0,0,0,3.14-5.09,15.62,15.62,0,0,0-.1-6.16c-.34-2.26-.66-4.41.16-5.8s2.88-2.19,5.07-3a15.25,15.25,0,0,0,5.39-2.87,15.2,15.2,0,0,0,3-5.3c.85-2.15,1.67-4.18,3.12-5s3.54-.42,5.8,0a15.57,15.57,0,0,0,6.17.25,14.7,14.7,0,0,0,5.16-3c1.87-1.43,3.58-2.8,5.35-2.74s3.26,1.47,5,3a14.55,14.55,0,0,0,4.91,3.28,14.47,14.47,0,0,0,6.08,0c2.21-.3,4.32-.58,5.63.26s2,2.84,2.72,5a14.35,14.35,0,0,0,2.69,5.43,14.29,14.29,0,0,0,5.24,3c2.09.83,4.06,1.63,4.83,3s.36,3.42,0,5.61a14.64,14.64,0,0,0-.27,6.12,14.23,14.23,0,0,0,3.12,5.09c1.43,1.75,2.8,3.42,2.8,5A1.14,1.14,0,0,0,173.61,221Z" transform="translate(-39.73 -136.38)"/></g><g class="cls-7"><path class="cls-8" d="M186.38,136.44h0a2.64,2.64,0,0,0-2,.49c-.37.22-.73.46-1.09.7l0,0c-1.11.77-2.19,1.58-3.3,2.36l-5.41,3.77c-1.75,1.23-3.51,2.46-5.24,3.73s-3.42,2.57-5.08,3.92-3.19,2.71-4.71,4.15-2.91,2.86-4.28,4.37-2.69,3.06-4,4.66c-.41.51-.81,1-1.21,1.54a84.46,84.46,0,0,0-5.34,7.88c-.43.72-.84,1.44-1.24,2.18-.32.59-.64,1.18-.9,1.8a1.19,1.19,0,0,0-.11.45,1,1,0,0,0,.37-.3c.44-.51.84-1.06,1.25-1.61,1.9-2.6,3.69-5.28,5.59-7.87,1.25-1.7,2.53-3.38,3.92-5s2.76-3,4.24-4.39,3.18-2.82,4.84-4.14c.62-.5,1.25-1,1.89-1.49,1.71-1.32,3.44-2.63,5.19-3.91l5.34-3.93c.82-.61,1.66-1.19,2.49-1.8,1.15-.84,2.31-1.68,3.48-2.49.32-.22.64-.43,1-.62a.85.85,0,0,1,.31-.09,1.09,1.09,0,0,1-.22.49c-.32.5-.66,1-1,1.48a17.85,17.85,0,0,0-2.25,4.36,8.42,8.42,0,0,0-.48,3.72,3.48,3.48,0,0,0,1.53,2.43l.38.25a2.93,2.93,0,0,0,.56.28,2,2,0,0,0,.4.18l.12,0,.12,0,.12,0,.12,0,.12.05H182a.5.5,0,0,0,.29.09,2,2,0,0,0,.59.16,3,3,0,0,0,.6.12l.2,0c.32.07.65.09,1,.15.17,0,.34.06.51,0a1.1,1.1,0,0,0,.4.05,1.19,1.19,0,0,0,.42,0,1,1,0,0,0,.34.06,21.83,21.83,0,0,1,4.81.9,19.61,19.61,0,0,1,2,.77l1,.46a27.91,27.91,0,0,1,3.8,2.31c.58.42,1.15.86,1.7,1.33s1.07,1,1.62,1.45a35.51,35.51,0,0,1,3,3.33,19.78,19.78,0,0,1,1.31,1.84,7.7,7.7,0,0,1,1,2.08,5.13,5.13,0,0,1,.16,1.95c-.13,1-.47,2-.65,3.07a7.12,7.12,0,0,0,.15,3.31,15.45,15.45,0,0,0,1.22,2.76c.45.81.94,1.59,1.42,2.37a17.69,17.69,0,0,1,1,1.69,1.5,1.5,0,0,1,.21.9.33.33,0,0,1-.24.2,2.78,2.78,0,0,1-.91,0,10.25,10.25,0,0,0-1.83-.13.82.82,0,0,0-.71.38,1.41,1.41,0,0,0,0,.95,9.55,9.55,0,0,0,.77,1.65c.43.78.89,1.55,1.3,2.34a6.26,6.26,0,0,1,.44,1,1.69,1.69,0,0,1,0,1.09,3,3,0,0,1-.75,1,14.76,14.76,0,0,1-1.83,1.4,30.15,30.15,0,0,1-4.34,2.32,16.09,16.09,0,0,1-5.17,1.41,14.89,14.89,0,0,1-5.8-.87c-.79-.26-1.56-.58-2.33-.89.89-1.16,1.82-2.28,2.7-3.44a2.27,2.27,0,0,0,.37-.64,1,1,0,0,0-.42.22,15.24,15.24,0,0,0-1.36,1.19q-1.12,1.09-2.16,2.28l-.53-.25-.54-.26c-.73-.36-1.46-.73-2.16-1.14a11.73,11.73,0,0,1-1.07-.65l.32-.22.34-.23.68-.46,1.36-.88,1.36-.88c.5-.33,1-.65,1.52-1a1.24,1.24,0,0,0,.4-.39,3.93,3.93,0,0,0-.87.31c-1,.46-1.92.94-2.86,1.45s-1.89,1.06-2.81,1.62l-.25.17c-.6-.35-1.16-.78-1.76-1.13a.62.62,0,0,0-.29-.09,1,1,0,0,0,.22.41,10.68,10.68,0,0,0,.84.93c.1.11.21.2.3.31l-1.13.73c-.5.34-1,.7-1.47,1.06-.73.52-1.44,1.06-2.14,1.62s-1.63,1.35-2.42,2.06-1.53,1.42-2.28,2.15-1.51,1.51-2.24,2.28-1.45,1.54-2.15,2.34l-.91,1.07-.42.52-.21.26-.11.15-.1.12a1.75,1.75,0,0,0-.32.58,2.47,2.47,0,0,0,.63-.44c1.12-1,2.2-2,3.29-3,2.17-2,4.35-4.08,6.6-6,2-1.69,4-3.31,6.12-4.81a18.46,18.46,0,0,0,4.29,2.67,50.42,50.42,0,0,0-5.1,7.68c-.61,1.13-1.22,2.26-1.73,3.43a3.2,3.2,0,0,0-.22.66l.1,0a5.22,5.22,0,0,0,.54-.7c.84-1.23,1.64-2.48,2.45-3.72,1.56-2.36,3.16-4.7,4.89-6.93a28.59,28.59,0,0,0,4.88,1.39,24.37,24.37,0,0,0,3.2.43,11.92,11.92,0,0,0,5.2-.62,8.63,8.63,0,0,0,2.28-1.35c.57-.44,1.08-1,1.68-1.39a9.91,9.91,0,0,1,1.65-.77,7.33,7.33,0,0,0,2.06-1.28,13.58,13.58,0,0,0,1.65-1.74,15,15,0,0,0,1.27-1.87,6.18,6.18,0,0,0,.84-2.06,2.89,2.89,0,0,0-.12-1.4,10.33,10.33,0,0,0-1.05-1.86,22.42,22.42,0,0,1-2.11-4.14,23.28,23.28,0,0,1-.95-2.93,16,16,0,0,1-.44-3.08c-.09-1.46,0-2.93-.22-4.39a12.82,12.82,0,0,0-1.34-4.3,15.4,15.4,0,0,0-2.48-3.31c-.54-.55-1.11-1.07-1.69-1.56-2.39-2-5-3.66-7.58-5.4a22.88,22.88,0,0,1-3.14-2.4c-.21-.22-.41-.44-.6-.68h0a8,8,0,0,1-1.32-3.43c.3-.19.57-.43.88-.61.68-.4,1.35-.82,2-1.2,1.4-.78,2.84-1.49,4.28-2.19,1.1-.53,2.2-1.07,3.33-1.53.35-.15,1.17-.52,1.36,0a3.39,3.39,0,0,1,.07,1.19c0,.3-.08.61-.13.91s-.16.83-.26,1.25c-.06.22-.1.44-.16.67a21.08,21.08,0,0,1-1.77,4.29q-.48.9-1,1.77l-.12.2a7.58,7.58,0,0,0-.38.67v.08l.19-.2.2-.23a6.3,6.3,0,0,0,.37-.53c.27-.39.56-.77.79-1.17s.48-.83.71-1.25l.56-1.06c.19-.36.39-.72.56-1.1l.07-.16c.09-.19.18-.37.26-.55.18-.37.35-.73.51-1.1.34-.74.66-1.48,1-2.23v0c.1-.24.19-.48.28-.72s.18-.5.27-.75a4.14,4.14,0,0,0,.26-1.47.57.57,0,0,0-.35-.51,1.87,1.87,0,0,0-.94,0,17.07,17.07,0,0,0-2.21.57c-.36.13-.72.28-1.08.4l-1.14.4-.07,0c-.76.28-1.5.57-2.24.88-1.51.63-3,1.28-4.51,1.93l-2,.86c-.25-1.82-.43-3.64-.67-5.45-.1-.72-.24-1.42-.33-2.13a8.15,8.15,0,0,0-.26-1.19,6.88,6.88,0,0,0-.34-1.09,2.78,2.78,0,0,0-.74-1.1,1.34,1.34,0,0,0-.4-.23Z" transform="translate(-39.73 -136.38)"/><path class="cls-8" d="M196.57,170.63c-.47,0-.94,0-1.4,0-.78,0-1.56.1-2.33.2-.39,0-.79.11-1.18.18l-.59.12-.29.06-.28.07a3,3,0,0,1,1.4.71,9.94,9.94,0,0,1,.76,1.31,5.3,5.3,0,0,0,1.72,1.71,7.29,7.29,0,0,0,1.81.9,3.74,3.74,0,0,0,1.55.21,1.9,1.9,0,0,0,1-.49,5.1,5.1,0,0,0,.88-1.19,14.94,14.94,0,0,1,1.32-1.9,2.84,2.84,0,0,0,.39-.54c.3-.63-1-.87-1.41-1a20.24,20.24,0,0,0-3.39-.4Z" transform="translate(-39.73 -136.38)"/><path class="cls-8" d="M189.09,188.17c-.14-.09-.3,0-.44,0a22.84,22.84,0,0,0-3.07.85c-1,.35-2,.75-3,1.19-.66.3-1.32.61-2,1-.91.49-1.8,1-2.67,1.6s-1.75,1.22-2.6,1.86c-.46.36-.92.71-1.37,1.08-1.2,1-2.39,2-3.49,3.08a2.36,2.36,0,0,0-.51.63,1.83,1.83,0,0,0,.62-.32c1.26-.84,2.47-1.75,3.7-2.62a73,73,0,0,1,8-5.17c.93-.5,1.89-1,2.86-1.4.49-.22,1-.44,1.49-.64s1-.39,1.48-.61a3.92,3.92,0,0,0,.36-.16,2.92,2.92,0,0,0,.57-.33Z" transform="translate(-39.73 -136.38)"/></g><path class="cls-9" d="M41.81,240.55v-6a1,1,0,0,1,.21-.7.71.71,0,0,1,.55-.24.76.76,0,0,1,.57.23,1,1,0,0,1,.21.71v6a1,1,0,0,1-.21.71.73.73,0,0,1-.57.23.71.71,0,0,1-.55-.23A1.06,1.06,0,0,1,41.81,240.55Z" transform="translate(-39.73 -136.38)"/><path class="cls-9" d="M49.75,239.63a1.74,1.74,0,0,1-.29,1,1.79,1.79,0,0,1-.84.64,4,4,0,0,1-1.37.21,3.23,3.23,0,0,1-1.31-.23,1.92,1.92,0,0,1-.81-.59,1.19,1.19,0,0,1-.26-.7.54.54,0,0,1,.17-.4.54.54,0,0,1,.42-.17.5.5,0,0,1,.34.11,1,1,0,0,1,.23.31,1.4,1.4,0,0,0,1.36.75,1.18,1.18,0,0,0,.7-.19.54.54,0,0,0,.27-.43.59.59,0,0,0-.28-.55,3.18,3.18,0,0,0-.94-.33,8,8,0,0,1-1.19-.38,2,2,0,0,1-.74-.53,1.24,1.24,0,0,1-.28-.81,1.44,1.44,0,0,1,.26-.81,1.85,1.85,0,0,1,.75-.61,2.89,2.89,0,0,1,1.2-.22,4.37,4.37,0,0,1,1,.11,2.47,2.47,0,0,1,.73.31,1.43,1.43,0,0,1,.45.43.84.84,0,0,1,.15.46.54.54,0,0,1-.16.4.68.68,0,0,1-.47.15.59.59,0,0,1-.37-.12,2.26,2.26,0,0,1-.35-.38,1.31,1.31,0,0,0-.38-.33,1.27,1.27,0,0,0-.6-.13,1.17,1.17,0,0,0-.64.17.47.47,0,0,0-.25.41.46.46,0,0,0,.18.37,1.73,1.73,0,0,0,.51.23c.21.07.5.14.88.23a4.76,4.76,0,0,1,1.08.39,1.68,1.68,0,0,1,.63.53A1.12,1.12,0,0,1,49.75,239.63Z" transform="translate(-39.73 -136.38)"/><path class="cls-9" d="M54.71,235.05a.76.76,0,0,1-.51-.19.64.64,0,0,1-.21-.51.66.66,0,0,1,.21-.5.74.74,0,0,1,.51-.2.76.76,0,0,1,.49.18.64.64,0,0,1,.21.52.64.64,0,0,1-.21.51A.73.73,0,0,1,54.71,235.05Zm.7,1.47v4.11a1,1,0,0,1-.2.65.7.7,0,0,1-.52.21.64.64,0,0,1-.51-.22.94.94,0,0,1-.19-.64v-4.07a.92.92,0,0,1,.19-.64.66.66,0,0,1,.51-.21.7.7,0,0,1,.52.21A.85.85,0,0,1,55.41,236.52Z" transform="translate(-39.73 -136.38)"/><path class="cls-9" d="M57.14,235.83h.16V235c0-.23,0-.41,0-.54a.91.91,0,0,1,.11-.34.61.61,0,0,1,.24-.24.68.68,0,0,1,.83.12.61.61,0,0,1,.19.33,2.62,2.62,0,0,1,0,.55v1h.52a.64.64,0,0,1,.46.15.44.44,0,0,1,.16.36.43.43,0,0,1-.23.41,1.55,1.55,0,0,1-.65.11h-.26v2.62c0,.22,0,.39,0,.51a.52.52,0,0,0,.13.29.41.41,0,0,0,.33.11,1.77,1.77,0,0,0,.34,0,1.6,1.6,0,0,1,.33,0,.42.42,0,0,1,.31.13.5.5,0,0,1,.14.35.58.58,0,0,1-.38.52,2.57,2.57,0,0,1-1.08.18,1.87,1.87,0,0,1-1-.22,1,1,0,0,1-.45-.62,4.32,4.32,0,0,1-.1-1.06v-2.73h-.19a.66.66,0,0,1-.47-.15.46.46,0,0,1-.16-.37.42.42,0,0,1,.17-.36A.7.7,0,0,1,57.14,235.83Z" transform="translate(-39.73 -136.38)"/><path class="cls-9" d="M67.47,240.69a4.14,4.14,0,0,1-1,.6,2.67,2.67,0,0,1-1.08.2,2.06,2.06,0,0,1-1-.21,1.59,1.59,0,0,1-.64-.59,1.51,1.51,0,0,1-.22-.8,1.44,1.44,0,0,1,.37-1,1.81,1.81,0,0,1,1-.55l.67-.14.92-.2.84-.22a1.55,1.55,0,0,0-.23-.83,1,1,0,0,0-.83-.26,1.76,1.76,0,0,0-.82.15,1.34,1.34,0,0,0-.47.45c-.13.2-.22.34-.27.4a.44.44,0,0,1-.35.1.56.56,0,0,1-.41-.16.48.48,0,0,1-.18-.39,1.2,1.2,0,0,1,.27-.73,1.78,1.78,0,0,1,.83-.58,3.57,3.57,0,0,1,1.4-.23,3.92,3.92,0,0,1,1.47.22,1.38,1.38,0,0,1,.76.7,3,3,0,0,1,.22,1.27v.85c0,.23,0,.49,0,.78a2.89,2.89,0,0,0,.14.84,3.12,3.12,0,0,1,.13.56.51.51,0,0,1-.21.39.67.67,0,0,1-.46.18.63.63,0,0,1-.44-.2A3.32,3.32,0,0,1,67.47,240.69Zm-.09-2.06a6.32,6.32,0,0,1-.91.24l-.83.19a1.13,1.13,0,0,0-.44.24.59.59,0,0,0-.21.48.73.73,0,0,0,.25.55.87.87,0,0,0,.64.23,1.72,1.72,0,0,0,.78-.18,1.28,1.28,0,0,0,.52-.48,2.16,2.16,0,0,0,.2-1.06Z" transform="translate(-39.73 -136.38)"/><path class="cls-9" d="M74.56,236.51v.17a2.79,2.79,0,0,1,.84-.73,2.08,2.08,0,0,1,1-.23,2.26,2.26,0,0,1,1.21.34,2.29,2.29,0,0,1,.87,1,3.5,3.5,0,0,1,.32,1.54,3.61,3.61,0,0,1-.19,1.21,2.8,2.8,0,0,1-.5.92,2.26,2.26,0,0,1-1.71.77,2,2,0,0,1-1-.24,2.9,2.9,0,0,1-.79-.72v2.14c0,.62-.23.94-.68.94a.54.54,0,0,1-.53-.25,1.45,1.45,0,0,1-.13-.7v-6.14a.93.93,0,0,1,.17-.61.6.6,0,0,1,.49-.2.65.65,0,0,1,.49.2A.85.85,0,0,1,74.56,236.51Zm2.79,2.06a2.53,2.53,0,0,0-.17-1,1.38,1.38,0,0,0-.48-.62,1.1,1.1,0,0,0-.67-.22,1.27,1.27,0,0,0-1,.47,2,2,0,0,0-.4,1.36,2,2,0,0,0,.4,1.32,1.24,1.24,0,0,0,1,.47,1.11,1.11,0,0,0,.65-.2,1.35,1.35,0,0,0,.49-.62A2.48,2.48,0,0,0,77.35,238.57Z" transform="translate(-39.73 -136.38)"/><path class="cls-9" d="M83.7,240.69a4.14,4.14,0,0,1-1,.6,2.67,2.67,0,0,1-1.08.2,2.09,2.09,0,0,1-1-.21,1.59,1.59,0,0,1-.64-.59,1.51,1.51,0,0,1-.22-.8,1.44,1.44,0,0,1,.37-1,1.81,1.81,0,0,1,1-.55l.67-.14.92-.2.84-.22a1.55,1.55,0,0,0-.23-.83,1,1,0,0,0-.83-.26,1.76,1.76,0,0,0-.82.15,1.34,1.34,0,0,0-.47.45c-.13.2-.22.34-.27.4a.44.44,0,0,1-.35.1.56.56,0,0,1-.41-.16.48.48,0,0,1-.18-.39,1.2,1.2,0,0,1,.27-.73,1.78,1.78,0,0,1,.83-.58,3.57,3.57,0,0,1,1.4-.23,3.89,3.89,0,0,1,1.47.22,1.38,1.38,0,0,1,.76.7,3,3,0,0,1,.22,1.27v.85c0,.23,0,.49,0,.78a2.89,2.89,0,0,0,.14.84,3.12,3.12,0,0,1,.13.56.51.51,0,0,1-.21.39.67.67,0,0,1-.46.18.63.63,0,0,1-.44-.2A3.32,3.32,0,0,1,83.7,240.69Zm-.09-2.06a6.32,6.32,0,0,1-.91.24l-.83.19a1.13,1.13,0,0,0-.44.24.59.59,0,0,0-.21.48.73.73,0,0,0,.25.55.87.87,0,0,0,.64.23,1.72,1.72,0,0,0,.78-.18,1.28,1.28,0,0,0,.52-.48,2.16,2.16,0,0,0,.2-1.06Z" transform="translate(-39.73 -136.38)"/><path class="cls-9" d="M86.63,240.63v-6.17a1,1,0,0,1,.19-.65.64.64,0,0,1,.51-.22.65.65,0,0,1,.52.22.89.89,0,0,1,.2.65v6.17a.91.91,0,0,1-.2.65.69.69,0,0,1-.52.21.64.64,0,0,1-.51-.22A.94.94,0,0,1,86.63,240.63Z" transform="translate(-39.73 -136.38)"/><path class="cls-9" d="M90.42,235.05a.78.78,0,0,1-.51-.19.64.64,0,0,1-.21-.51.67.67,0,0,1,.22-.5.74.74,0,0,1,1,0,.62.62,0,0,1,.22.52.64.64,0,0,1-.21.51A.76.76,0,0,1,90.42,235.05Zm.71,1.47v4.11a.92.92,0,0,1-.21.65.66.66,0,0,1-.51.21.64.64,0,0,1-.51-.22.94.94,0,0,1-.2-.64v-4.07a.93.93,0,0,1,.2-.64.72.72,0,0,1,1,0A.81.81,0,0,1,91.13,236.52Z" transform="translate(-39.73 -136.38)"/><path class="cls-9" d="M94.07,236.49v.18a2.42,2.42,0,0,1,.82-.73,2.26,2.26,0,0,1,1-.23,2.05,2.05,0,0,1,1,.24,1.83,1.83,0,0,1,.85,1.26,7.64,7.64,0,0,1,0,.77v2.65a1,1,0,0,1-.2.65.66.66,0,0,1-.51.21.64.64,0,0,1-.51-.22.94.94,0,0,1-.2-.64v-2.37a2.4,2.4,0,0,0-.19-1.08.8.8,0,0,0-.78-.37,1.16,1.16,0,0,0-.7.22,1.35,1.35,0,0,0-.46.63,4.49,4.49,0,0,0-.1,1.19v1.78a1,1,0,0,1-.2.65.7.7,0,0,1-.52.21.67.67,0,0,1-.51-.22.94.94,0,0,1-.19-.64v-4.11a.93.93,0,0,1,.17-.61.6.6,0,0,1,.49-.2.67.67,0,0,1,.34.09.61.61,0,0,1,.24.26A.94.94,0,0,1,94.07,236.49Z" transform="translate(-39.73 -136.38)"/><path class="cls-9" d="M103.31,240.68v-.14a3.07,3.07,0,0,1-.57.53,2,2,0,0,1-.6.32,2.34,2.34,0,0,1-.71.1,2.14,2.14,0,0,1-1-.21,2.23,2.23,0,0,1-.75-.62,2.72,2.72,0,0,1-.49-.94,4.06,4.06,0,0,1-.16-1.18,3.08,3.08,0,0,1,.65-2.08,2.2,2.2,0,0,1,1.72-.74,2.28,2.28,0,0,1,1,.21,2.86,2.86,0,0,1,.83.65v-2.1a1.09,1.09,0,0,1,.17-.66.6.6,0,0,1,.5-.23.61.61,0,0,1,.5.21.93.93,0,0,1,.17.6v6.28a.84.84,0,0,1-.19.61.59.59,0,0,1-.48.2.61.61,0,0,1-.48-.21A.85.85,0,0,1,103.31,240.68Zm-2.8-2.09a2.47,2.47,0,0,0,.18,1,1.37,1.37,0,0,0,.49.61,1.2,1.2,0,0,0,.68.2,1.23,1.23,0,0,0,1.18-.79,2.33,2.33,0,0,0,.19-1,2.29,2.29,0,0,0-.19-1,1.42,1.42,0,0,0-.5-.62,1.16,1.16,0,0,0-.69-.22,1.24,1.24,0,0,0-.7.22,1.43,1.43,0,0,0-.47.64A2.42,2.42,0,0,0,100.51,238.59Z" transform="translate(-39.73 -136.38)"/><path class="cls-9" d="M107.68,239.44v1.19a.91.91,0,0,1-.21.65.68.68,0,0,1-.51.21.66.66,0,0,1-.51-.21,1,1,0,0,1-.2-.65v-4c0-.64.23-1,.7-1a.59.59,0,0,1,.51.22,1.27,1.27,0,0,1,.17.66,2.49,2.49,0,0,1,.52-.66,1.09,1.09,0,0,1,.72-.22,1.81,1.81,0,0,1,.87.22.67.67,0,0,1,.42.6.58.58,0,0,1-.18.43.57.57,0,0,1-.39.17,2.35,2.35,0,0,1-.37-.1,1.63,1.63,0,0,0-.53-.1.77.77,0,0,0-.51.17,1,1,0,0,0-.31.48,2.84,2.84,0,0,0-.15.77C107.69,238.65,107.68,239,107.68,239.44Z" transform="translate(-39.73 -136.38)"/><path class="cls-9" d="M116,238.6a3.38,3.38,0,0,1-.2,1.17,2.59,2.59,0,0,1-.57.93,2.66,2.66,0,0,1-.9.59,3.09,3.09,0,0,1-1.17.2,3.24,3.24,0,0,1-1.16-.2,2.55,2.55,0,0,1-1.47-1.52,3.34,3.34,0,0,1-.2-1.17,3.44,3.44,0,0,1,.2-1.18,2.47,2.47,0,0,1,.57-.92,2.66,2.66,0,0,1,.9-.59,3.32,3.32,0,0,1,1.16-.2,3.13,3.13,0,0,1,1.17.21,2.52,2.52,0,0,1,.9.59,2.57,2.57,0,0,1,.58.92A3.34,3.34,0,0,1,116,238.6Zm-1.43,0a2.15,2.15,0,0,0-.38-1.35,1.24,1.24,0,0,0-1-.49,1.26,1.26,0,0,0-.74.22,1.36,1.36,0,0,0-.49.64,2.91,2.91,0,0,0,0,2,1.43,1.43,0,0,0,.49.63,1.23,1.23,0,0,0,.74.23,1.27,1.27,0,0,0,1-.49A2.19,2.19,0,0,0,114.61,238.6Z" transform="translate(-39.73 -136.38)"/><path class="cls-9" d="M122.08,238.71v1.89a.94.94,0,0,1-.21.67.67.67,0,0,1-.53.22.68.68,0,0,1-.53-.22,1,1,0,0,1-.2-.67v-2.27c0-.36,0-.64,0-.83a1,1,0,0,0-.2-.49.63.63,0,0,0-.51-.19.9.9,0,0,0-.92.48,3.32,3.32,0,0,0-.23,1.37v1.93a1,1,0,0,1-.2.67.66.66,0,0,1-.52.22.67.67,0,0,1-.53-.22,1,1,0,0,1-.21-.67v-4.07a.86.86,0,0,1,.19-.61.6.6,0,0,1,.48-.21.66.66,0,0,1,.49.19.73.73,0,0,1,.2.54v.14a2.36,2.36,0,0,1,.79-.65,2.06,2.06,0,0,1,.94-.21,1.92,1.92,0,0,1,.92.21,1.58,1.58,0,0,1,.63.65,2.46,2.46,0,0,1,.78-.65,1.94,1.94,0,0,1,.91-.21,2,2,0,0,1,1,.23,1.44,1.44,0,0,1,.64.65,3.1,3.1,0,0,1,.18,1.22v2.78a.94.94,0,0,1-.21.67.67.67,0,0,1-.53.22.68.68,0,0,1-.53-.22,1,1,0,0,1-.21-.67v-2.4a4.81,4.81,0,0,0,0-.73.76.76,0,0,0-.21-.46.65.65,0,0,0-.52-.19.94.94,0,0,0-.53.16,1.33,1.33,0,0,0-.4.45A3.75,3.75,0,0,0,122.08,238.71Z" transform="translate(-39.73 -136.38)"/><path class="cls-9" d="M130.94,239h-2.78a2,2,0,0,0,.19.86,1.36,1.36,0,0,0,.51.55,1.29,1.29,0,0,0,.7.19,1.65,1.65,0,0,0,.46-.06,1.38,1.38,0,0,0,.41-.19,2.51,2.51,0,0,0,.37-.27l.43-.4a.48.48,0,0,1,.31-.09.52.52,0,0,1,.36.12.42.42,0,0,1,.13.34.92.92,0,0,1-.15.45,1.7,1.7,0,0,1-.45.49,2.78,2.78,0,0,1-.77.4,3.43,3.43,0,0,1-1.06.15,2.82,2.82,0,0,1-2.13-.78,2.9,2.9,0,0,1-.77-2.12,3.68,3.68,0,0,1,.19-1.17,2.7,2.7,0,0,1,.55-.93,2.43,2.43,0,0,1,.89-.59,3.32,3.32,0,0,1,1.16-.2,2.68,2.68,0,0,1,1.43.35,2.31,2.31,0,0,1,.9.91,2.37,2.37,0,0,1,.3,1.14.71.71,0,0,1-.31.69A1.9,1.9,0,0,1,130.94,239Zm-2.78-.81h2.58a1.81,1.81,0,0,0-.39-1.09,1.19,1.19,0,0,0-.9-.36,1.13,1.13,0,0,0-.88.37A1.85,1.85,0,0,0,128.16,238.14Z" transform="translate(-39.73 -136.38)"/><path class="cls-9" d="M133.23,235.77a1.9,1.9,0,0,1,.32-1,2.48,2.48,0,0,1,.93-.85,2.92,2.92,0,0,1,1.42-.33,3,3,0,0,1,1.33.28,2.18,2.18,0,0,1,.9.76,1.86,1.86,0,0,1,.31,1,1.61,1.61,0,0,1-.18.78,2.48,2.48,0,0,1-.42.57c-.17.17-.46.44-.89.82-.12.11-.22.2-.29.28l-.16.23-.08.2c0,.07,0,.19-.08.36a.58.58,0,0,1-.62.54.63.63,0,0,1-.46-.18.68.68,0,0,1-.18-.52,2,2,0,0,1,.13-.76,1.8,1.8,0,0,1,.36-.56,5.92,5.92,0,0,1,.61-.58l.48-.44a1.59,1.59,0,0,0,.25-.33.79.79,0,0,0,.1-.4.9.9,0,0,0-.31-.7,1.14,1.14,0,0,0-.8-.29,1.11,1.11,0,0,0-.84.29,2.12,2.12,0,0,0-.46.85c-.12.4-.35.59-.68.59a.7.7,0,0,1-.49-.2A.66.66,0,0,1,133.23,235.77Zm2.54,5.71a.8.8,0,0,1-.55-.2.73.73,0,0,1-.24-.58.75.75,0,0,1,.23-.55.82.82,0,0,1,1.12,0,.74.74,0,0,1,.22.55.75.75,0,0,1-.23.58A.85.85,0,0,1,135.77,241.48Z" transform="translate(-39.73 -136.38)"/><path class="cls-9" d="M239.72,240.55v-6a1,1,0,0,1,.22-.7.69.69,0,0,1,.55-.24.74.74,0,0,1,.56.23,1,1,0,0,1,.22.71v6a1,1,0,0,1-.22.71.7.7,0,0,1-.56.23.7.7,0,0,1-.55-.23A1,1,0,0,1,239.72,240.55Z" transform="translate(-39.73 -136.38)"/><path class="cls-9" d="M247.67,239.63a1.74,1.74,0,0,1-.29,1,1.77,1.77,0,0,1-.85.64,3.89,3.89,0,0,1-1.36.21,3.32,3.32,0,0,1-1.32-.23,1.88,1.88,0,0,1-.8-.59,1.13,1.13,0,0,1-.26-.7.54.54,0,0,1,.16-.4.54.54,0,0,1,.43-.17.51.51,0,0,1,.34.11,1,1,0,0,1,.23.31,1.49,1.49,0,0,0,.52.56,1.55,1.55,0,0,0,.83.19,1.21,1.21,0,0,0,.71-.19.54.54,0,0,0,.27-.43.6.6,0,0,0-.29-.55,3.09,3.09,0,0,0-.93-.33,8.2,8.2,0,0,1-1.2-.38,2.07,2.07,0,0,1-.74-.53,1.24,1.24,0,0,1-.27-.81,1.43,1.43,0,0,1,.25-.81,1.89,1.89,0,0,1,.76-.61,2.89,2.89,0,0,1,1.2-.22,4.22,4.22,0,0,1,1,.11,2.54,2.54,0,0,1,.74.31,1.69,1.69,0,0,1,.45.43.84.84,0,0,1,.15.46.54.54,0,0,1-.17.4.64.64,0,0,1-.46.15.57.57,0,0,1-.37-.12,2.25,2.25,0,0,1-.36-.38,1.1,1.1,0,0,0-.38-.33,1.2,1.2,0,0,0-.59-.13,1.15,1.15,0,0,0-.64.17.48.48,0,0,0-.26.41.44.44,0,0,0,.19.37,1.62,1.62,0,0,0,.51.23c.21.07.5.14.87.23a4.76,4.76,0,0,1,1.08.39,1.8,1.8,0,0,1,.64.53A1.18,1.18,0,0,1,247.67,239.63Z" transform="translate(-39.73 -136.38)"/><path class="cls-9" d="M252.62,235.05a.76.76,0,0,1-.51-.19.7.7,0,0,1,0-1,.72.72,0,0,1,.5-.2.74.74,0,0,1,.49.18.64.64,0,0,1,.21.52.66.66,0,0,1-.2.51A.76.76,0,0,1,252.62,235.05Zm.7,1.47v4.11a.92.92,0,0,1-.2.65.69.69,0,0,1-.52.21.63.63,0,0,1-.5-.22.94.94,0,0,1-.2-.64v-4.07a.93.93,0,0,1,.2-.64.66.66,0,0,1,.5-.21.69.69,0,0,1,.52.21A.81.81,0,0,1,253.32,236.52Z" transform="translate(-39.73 -136.38)"/><path class="cls-9" d="M255.05,235.83h.16V235c0-.23,0-.41,0-.54a.75.75,0,0,1,.1-.34.78.78,0,0,1,.24-.24.68.68,0,0,1,.35-.09.7.7,0,0,1,.49.21.54.54,0,0,1,.18.33,2.62,2.62,0,0,1,0,.55v1h.52a.66.66,0,0,1,.47.15.47.47,0,0,1,.16.36.43.43,0,0,1-.23.41,1.59,1.59,0,0,1-.65.11h-.27v2.62a3.3,3.3,0,0,0,0,.51.45.45,0,0,0,.12.29.41.41,0,0,0,.33.11,1.61,1.61,0,0,0,.34,0,1.69,1.69,0,0,1,.34,0,.45.45,0,0,1,.31.13.49.49,0,0,1,.13.35.57.57,0,0,1-.37.52,2.57,2.57,0,0,1-1.08.18,1.85,1.85,0,0,1-1-.22,1,1,0,0,1-.45-.62,4.25,4.25,0,0,1-.11-1.06v-2.73H255a.68.68,0,0,1-.47-.15.49.49,0,0,1-.16-.37.45.45,0,0,1,.17-.36A.72.72,0,0,1,255.05,235.83Z" transform="translate(-39.73 -136.38)"/><path class="cls-9" d="M265.38,240.69a4.09,4.09,0,0,1-1,.6,2.75,2.75,0,0,1-1.09.2,2.12,2.12,0,0,1-1-.21,1.66,1.66,0,0,1-.64-.59,1.51,1.51,0,0,1-.22-.8,1.44,1.44,0,0,1,.37-1,1.88,1.88,0,0,1,1-.55l.67-.14.92-.2.83-.22a1.47,1.47,0,0,0-.23-.83,1,1,0,0,0-.83-.26,1.71,1.71,0,0,0-.81.15,1.26,1.26,0,0,0-.47.45c-.13.2-.23.34-.28.4s-.17.1-.35.1a.57.57,0,0,1-.41-.16.48.48,0,0,1-.17-.39,1.19,1.19,0,0,1,.26-.73,1.84,1.84,0,0,1,.83-.58,3.6,3.6,0,0,1,1.4-.23,3.94,3.94,0,0,1,1.48.22,1.38,1.38,0,0,1,.76.7,3.18,3.18,0,0,1,.22,1.27v.85c0,.23,0,.49,0,.78a2.87,2.87,0,0,0,.13.84,2.4,2.4,0,0,1,.13.56.53.53,0,0,1-.2.39.71.71,0,0,1-.47.18.59.59,0,0,1-.43-.2A3.31,3.31,0,0,1,265.38,240.69Zm-.09-2.06a6,6,0,0,1-.91.24l-.83.19a1.09,1.09,0,0,0-.43.24.59.59,0,0,0-.21.48.72.72,0,0,0,.24.55.88.88,0,0,0,.64.23,1.66,1.66,0,0,0,.78-.18,1.31,1.31,0,0,0,.53-.48,2.17,2.17,0,0,0,.19-1.06Z" transform="translate(-39.73 -136.38)"/><path class="cls-9" d="M272.48,236.51v.17a2.76,2.76,0,0,1,.83-.73,2.11,2.11,0,0,1,1-.23,2.27,2.27,0,0,1,2.08,1.33,3.36,3.36,0,0,1,.32,1.54,3.89,3.89,0,0,1-.18,1.21,2.64,2.64,0,0,1-.51.92,2.12,2.12,0,0,1-.76.57,2.19,2.19,0,0,1-.95.2,2,2,0,0,1-1-.24,2.77,2.77,0,0,1-.79-.72v2.14c0,.62-.23.94-.69.94a.56.56,0,0,1-.53-.25,1.58,1.58,0,0,1-.13-.7v-6.14a.87.87,0,0,1,.18-.61.59.59,0,0,1,.48-.2.67.67,0,0,1,.5.2A.9.9,0,0,1,272.48,236.51Zm2.79,2.06a2.35,2.35,0,0,0-.18-1,1.37,1.37,0,0,0-.47-.62,1.13,1.13,0,0,0-.68-.22,1.27,1.27,0,0,0-1,.47,2,2,0,0,0-.4,1.36,2,2,0,0,0,.4,1.32,1.23,1.23,0,0,0,1,.47,1.12,1.12,0,0,0,.66-.2,1.4,1.4,0,0,0,.48-.62A2.32,2.32,0,0,0,275.27,238.57Z" transform="translate(-39.73 -136.38)"/><path class="cls-9" d="M281.62,240.69a4.34,4.34,0,0,1-1,.6,2.7,2.7,0,0,1-1.08.2,2.13,2.13,0,0,1-1-.21,1.66,1.66,0,0,1-.64-.59,1.6,1.6,0,0,1-.22-.8,1.44,1.44,0,0,1,.37-1,1.88,1.88,0,0,1,1-.55l.67-.14.92-.2.83-.22a1.47,1.47,0,0,0-.23-.83,1,1,0,0,0-.83-.26,1.71,1.71,0,0,0-.81.15,1.26,1.26,0,0,0-.47.45,3.27,3.27,0,0,1-.28.4c0,.07-.17.1-.34.1a.6.6,0,0,1-.42-.16.48.48,0,0,1-.17-.39,1.19,1.19,0,0,1,.26-.73,1.9,1.9,0,0,1,.83-.58,3.6,3.6,0,0,1,1.4-.23,3.94,3.94,0,0,1,1.48.22,1.38,1.38,0,0,1,.76.7,3.18,3.18,0,0,1,.22,1.27v.85c0,.23,0,.49,0,.78a2.87,2.87,0,0,0,.13.84,2.4,2.4,0,0,1,.13.56.5.5,0,0,1-.2.39.69.69,0,0,1-.47.18.61.61,0,0,1-.43-.2A2.91,2.91,0,0,1,281.62,240.69Zm-.1-2.06a6,6,0,0,1-.91.24l-.82.19a1.06,1.06,0,0,0-.44.24.59.59,0,0,0-.21.48.72.72,0,0,0,.24.55.89.89,0,0,0,.65.23,1.65,1.65,0,0,0,.77-.18,1.31,1.31,0,0,0,.53-.48,2.17,2.17,0,0,0,.19-1.06Z" transform="translate(-39.73 -136.38)"/><path class="cls-9" d="M284.54,240.63v-6.17a1,1,0,0,1,.19-.65.65.65,0,0,1,.52-.22.66.66,0,0,1,.52.22.94.94,0,0,1,.2.65v6.17a1,1,0,0,1-.2.65.7.7,0,0,1-.52.21.64.64,0,0,1-.51-.22A.94.94,0,0,1,284.54,240.63Z" transform="translate(-39.73 -136.38)"/><path class="cls-9" d="M288.34,235.05a.76.76,0,0,1-.51-.19.7.7,0,0,1,0-1,.72.72,0,0,1,.5-.2.74.74,0,0,1,.49.18.64.64,0,0,1,.21.52.64.64,0,0,1-.21.51A.73.73,0,0,1,288.34,235.05Zm.7,1.47v4.11a1,1,0,0,1-.2.65.7.7,0,0,1-.52.21.64.64,0,0,1-.51-.22.94.94,0,0,1-.19-.64v-4.07a.92.92,0,0,1,.19-.64.66.66,0,0,1,.51-.21.7.7,0,0,1,.52.21A.85.85,0,0,1,289,236.52Z" transform="translate(-39.73 -136.38)"/><path class="cls-9" d="M292,236.49v.18a2.42,2.42,0,0,1,.82-.73,2.22,2.22,0,0,1,1-.23,2.09,2.09,0,0,1,1,.24,1.65,1.65,0,0,1,.66.7,1.75,1.75,0,0,1,.18.56,5.5,5.5,0,0,1,0,.77v2.65a1,1,0,0,1-.19.65.66.66,0,0,1-.51.21.67.67,0,0,1-.52-.22.94.94,0,0,1-.19-.64v-2.37a2.39,2.39,0,0,0-.2-1.08.79.79,0,0,0-.78-.37,1.16,1.16,0,0,0-.69.22,1.35,1.35,0,0,0-.46.63,4.37,4.37,0,0,0-.11,1.19v1.78a.91.91,0,0,1-.2.65.67.67,0,0,1-.52.21.63.63,0,0,1-.5-.22.94.94,0,0,1-.2-.64v-4.11a.87.87,0,0,1,.18-.61.59.59,0,0,1,.48-.2.64.64,0,0,1,.34.09.61.61,0,0,1,.24.26A.83.83,0,0,1,292,236.49Z" transform="translate(-39.73 -136.38)"/><path class="cls-9" d="M301.22,240.68v-.14a3.38,3.38,0,0,1-.56.53,2.1,2.1,0,0,1-.61.32,2.3,2.3,0,0,1-.71.1,2.17,2.17,0,0,1-.95-.21,2.23,2.23,0,0,1-.75-.62,2.88,2.88,0,0,1-.48-.94,4.05,4.05,0,0,1-.17-1.18,3,3,0,0,1,.66-2.08,2.17,2.17,0,0,1,1.71-.74,2.32,2.32,0,0,1,1,.21,3,3,0,0,1,.82.65v-2.1a1,1,0,0,1,.18-.66.58.58,0,0,1,.49-.23.6.6,0,0,1,.5.21.88.88,0,0,1,.18.6v6.28a.89.89,0,0,1-.19.61.68.68,0,0,1-1,0A.9.9,0,0,1,301.22,240.68Zm-2.8-2.09a2.47,2.47,0,0,0,.18,1,1.39,1.39,0,0,0,.5.61,1.16,1.16,0,0,0,.68.2,1.22,1.22,0,0,0,.68-.19,1.31,1.31,0,0,0,.5-.6,2.5,2.5,0,0,0,.18-1,2.45,2.45,0,0,0-.18-1,1.42,1.42,0,0,0-.5-.62,1.16,1.16,0,0,0-.69-.22,1.21,1.21,0,0,0-.7.22,1.45,1.45,0,0,0-.48.64A2.61,2.61,0,0,0,298.42,238.59Z" transform="translate(-39.73 -136.38)"/><path class="cls-9" d="M305.59,239.44v1.19a1,1,0,0,1-.2.65.74.74,0,0,1-1,0,1,1,0,0,1-.19-.65v-4q0-1,.69-1a.56.56,0,0,1,.51.22,1.18,1.18,0,0,1,.17.66,2.5,2.5,0,0,1,.53-.66,1.06,1.06,0,0,1,.71-.22,1.81,1.81,0,0,1,.87.22.67.67,0,0,1,.43.6.58.58,0,0,1-.18.43.57.57,0,0,1-.39.17,2.35,2.35,0,0,1-.38-.1,1.63,1.63,0,0,0-.53-.1.77.77,0,0,0-.51.17,1.14,1.14,0,0,0-.31.48,3.89,3.89,0,0,0-.15.77C305.6,238.65,305.59,239,305.59,239.44Z" transform="translate(-39.73 -136.38)"/><path class="cls-9" d="M314,238.6a3.38,3.38,0,0,1-.2,1.17,2.55,2.55,0,0,1-1.47,1.52,3.14,3.14,0,0,1-1.18.2,3.28,3.28,0,0,1-1.16-.2,2.59,2.59,0,0,1-.89-.6,2.66,2.66,0,0,1-.58-.92,3.34,3.34,0,0,1-.19-1.17,3.44,3.44,0,0,1,.2-1.18,2.47,2.47,0,0,1,.57-.92,2.52,2.52,0,0,1,.89-.59,3.32,3.32,0,0,1,1.16-.2,3.14,3.14,0,0,1,1.18.21,2.52,2.52,0,0,1,.9.59,2.55,2.55,0,0,1,.57.92A3.34,3.34,0,0,1,314,238.6Zm-1.43,0a2.09,2.09,0,0,0-.39-1.35,1.21,1.21,0,0,0-1-.49,1.23,1.23,0,0,0-.73.22,1.3,1.3,0,0,0-.49.64,2.91,2.91,0,0,0,0,2,1.35,1.35,0,0,0,.48.63,1.32,1.32,0,0,0,1.77-.26A2.13,2.13,0,0,0,312.53,238.6Z" transform="translate(-39.73 -136.38)"/><path class="cls-9" d="M320,238.71v1.89a1,1,0,0,1-.2.67.7.7,0,0,1-.54.22.66.66,0,0,1-.52-.22.94.94,0,0,1-.2-.67v-2.27a8,8,0,0,0,0-.83.87.87,0,0,0-.2-.49.63.63,0,0,0-.51-.19.91.91,0,0,0-.92.48,3.34,3.34,0,0,0-.22,1.37v1.93a1,1,0,0,1-.2.67.67.67,0,0,1-.53.22.68.68,0,0,1-.53-.22,1,1,0,0,1-.21-.67v-4.07a.91.91,0,0,1,.19-.61.62.62,0,0,1,.49-.21.65.65,0,0,1,.48.19.73.73,0,0,1,.2.54v.14a2.47,2.47,0,0,1,.79-.65,2.09,2.09,0,0,1,.94-.21,1.87,1.87,0,0,1,.92.21,1.67,1.67,0,0,1,.64.65,2.54,2.54,0,0,1,.77-.65,2.2,2.2,0,0,1,1.92,0,1.47,1.47,0,0,1,.63.65,3.1,3.1,0,0,1,.18,1.22v2.78a1,1,0,0,1-.2.67.76.76,0,0,1-1.07,0,1,1,0,0,1-.2-.67v-2.4a6.62,6.62,0,0,0,0-.73.89.89,0,0,0-.21-.46.67.67,0,0,0-.52-.19,1,1,0,0,0-.54.16,1.2,1.2,0,0,0-.39.45A3.46,3.46,0,0,0,320,238.71Z" transform="translate(-39.73 -136.38)"/><path class="cls-9" d="M328.86,239h-2.79a2,2,0,0,0,.2.86,1.36,1.36,0,0,0,.51.55,1.28,1.28,0,0,0,.69.19,1.73,1.73,0,0,0,.47-.06,1.38,1.38,0,0,0,.41-.19,2.42,2.42,0,0,0,.36-.27c.11-.1.26-.23.43-.4a.51.51,0,0,1,.32-.09.51.51,0,0,1,.35.12.43.43,0,0,1,.14.34.92.92,0,0,1-.15.45,1.75,1.75,0,0,1-.46.49,2.65,2.65,0,0,1-.77.4,3.39,3.39,0,0,1-1.06.15,2.85,2.85,0,0,1-2.13-.78,2.9,2.9,0,0,1-.76-2.12,3.42,3.42,0,0,1,.19-1.17,2.68,2.68,0,0,1,.54-.93,2.52,2.52,0,0,1,.89-.59,3.34,3.34,0,0,1,1.17-.2,2.73,2.73,0,0,1,1.43.35,2.22,2.22,0,0,1,.89.91,2.37,2.37,0,0,1,.3,1.14c0,.35-.1.59-.31.69A1.83,1.83,0,0,1,328.86,239Zm-2.79-.81h2.58a1.69,1.69,0,0,0-.39-1.09,1.19,1.19,0,0,0-.9-.36,1.13,1.13,0,0,0-.87.37A1.79,1.79,0,0,0,326.07,238.14Z" transform="translate(-39.73 -136.38)"/><path class="cls-9" d="M331.15,235.77a1.88,1.88,0,0,1,.31-1,2.56,2.56,0,0,1,.93-.85,3,3,0,0,1,1.42-.33,3,3,0,0,1,1.34.28,2.22,2.22,0,0,1,.89.76,1.87,1.87,0,0,1,.32,1,1.61,1.61,0,0,1-.18.78,2.25,2.25,0,0,1-.43.57c-.16.17-.46.44-.89.82a3.66,3.66,0,0,0-.28.28l-.16.23-.08.2-.09.36a.57.57,0,0,1-.62.54.61.61,0,0,1-.45-.18.65.65,0,0,1-.19-.52,1.94,1.94,0,0,1,.14-.76,1.8,1.8,0,0,1,.36-.56,6.86,6.86,0,0,1,.6-.58l.48-.44a1.31,1.31,0,0,0,.25-.33.8.8,0,0,0,.11-.4.91.91,0,0,0-.32-.7,1.12,1.12,0,0,0-.8-.29,1.11,1.11,0,0,0-.84.29,2.4,2.4,0,0,0-.46.85c-.12.4-.34.59-.67.59a.66.66,0,0,1-.49-.2A.62.62,0,0,1,331.15,235.77Zm2.54,5.71a.82.82,0,0,1-.56-.2.75.75,0,0,1-.23-.58.71.71,0,0,1,.23-.55.76.76,0,0,1,.56-.22.74.74,0,0,1,.55.22.75.75,0,0,1,.23.55.73.73,0,0,1-.24.58A.82.82,0,0,1,333.69,241.48Z" transform="translate(-39.73 -136.38)"/><path class="cls-4" d="M236.91,241.26a.71.71,0,0,1-.55.23.74.74,0,0,1-.57-.23,1,1,0,0,1-.21-.71v-6a1,1,0,0,1,.21-.71.78.78,0,0,1,.57-.23.71.71,0,0,1,.55.24,1,1,0,0,1,.21.7v6A1.06,1.06,0,0,1,236.91,241.26Z" transform="translate(-39.73 -136.38)"/><path class="cls-4" d="M229.4,238.94a1.68,1.68,0,0,1,.63-.53,4.76,4.76,0,0,1,1.08-.39c.38-.09.67-.16.88-.23a1.73,1.73,0,0,0,.51-.23.46.46,0,0,0,.18-.37.47.47,0,0,0-.25-.41,1.17,1.17,0,0,0-.64-.17,1.27,1.27,0,0,0-.6.13,1.31,1.31,0,0,0-.38.33,2.26,2.26,0,0,1-.35.38.59.59,0,0,1-.37.12.68.68,0,0,1-.47-.15.54.54,0,0,1-.16-.4.84.84,0,0,1,.15-.46,1.43,1.43,0,0,1,.45-.43,2.59,2.59,0,0,1,.73-.31,4.37,4.37,0,0,1,1-.11,2.89,2.89,0,0,1,1.2.22,1.85,1.85,0,0,1,.75.61,1.44,1.44,0,0,1,.26.81,1.24,1.24,0,0,1-.28.81,2,2,0,0,1-.74.53,7.65,7.65,0,0,1-1.19.38,3.18,3.18,0,0,0-.94.33.59.59,0,0,0-.28.55.54.54,0,0,0,.27.43,1.18,1.18,0,0,0,.7.19,1.4,1.4,0,0,0,1.36-.75,1,1,0,0,1,.23-.31.5.5,0,0,1,.34-.11.54.54,0,0,1,.42.17.54.54,0,0,1,.17.4,1.19,1.19,0,0,1-.26.7,1.86,1.86,0,0,1-.81.59,3.23,3.23,0,0,1-1.31.23,4,4,0,0,1-1.37-.21,1.79,1.79,0,0,1-.84-.64,1.74,1.74,0,0,1-.29-1A1.12,1.12,0,0,1,229.4,238.94Z" transform="translate(-39.73 -136.38)"/><path class="cls-4" d="M223.73,234.86a.64.64,0,0,1-.21-.51.62.62,0,0,1,.22-.52.72.72,0,0,1,.49-.18.74.74,0,0,1,.5.2.66.66,0,0,1,.21.5.64.64,0,0,1-.21.51.76.76,0,0,1-.5.19A.74.74,0,0,1,223.73,234.86Zm0,1.06a.7.7,0,0,1,.52-.21.66.66,0,0,1,.51.21.92.92,0,0,1,.19.64v4.07a.94.94,0,0,1-.19.64.64.64,0,0,1-.51.22.7.7,0,0,1-.52-.21,1,1,0,0,1-.2-.65v-4.11A.85.85,0,0,1,223.72,235.92Z" transform="translate(-39.73 -136.38)"/><path class="cls-4" d="M222.28,236a.42.42,0,0,1,.17.36.46.46,0,0,1-.16.37.66.66,0,0,1-.47.15h-.18v2.73a4.25,4.25,0,0,1-.11,1.06,1,1,0,0,1-.45.62,1.87,1.87,0,0,1-1,.22,2.57,2.57,0,0,1-1.08-.18.58.58,0,0,1-.38-.52.5.5,0,0,1,.14-.35.43.43,0,0,1,.31-.13,1.6,1.6,0,0,1,.33,0,1.77,1.77,0,0,0,.34,0,.39.39,0,0,0,.33-.11.52.52,0,0,0,.13-.29c0-.12,0-.29,0-.51v-2.62H220a1.55,1.55,0,0,1-.65-.11.43.43,0,0,1-.23-.41.44.44,0,0,1,.16-.36.65.65,0,0,1,.46-.15h.52v-1a3.56,3.56,0,0,1,0-.55.61.61,0,0,1,.19-.33.68.68,0,0,1,.49-.21.73.73,0,0,1,.35.09.78.78,0,0,1,.24.24,1.13,1.13,0,0,1,.1.34c0,.13,0,.31,0,.54v.85h.15A.7.7,0,0,1,222.28,236Z" transform="translate(-39.73 -136.38)"/><path class="cls-4" d="M211,241.29a.61.61,0,0,1-.44.2.69.69,0,0,1-.46-.18.51.51,0,0,1-.21-.39,2.65,2.65,0,0,1,.14-.56,3.24,3.24,0,0,0,.13-.84c0-.29,0-.55,0-.78v-.85a3,3,0,0,1,.22-1.27,1.38,1.38,0,0,1,.76-.7,3.92,3.92,0,0,1,1.47-.22,3.65,3.65,0,0,1,1.41.23,1.8,1.8,0,0,1,.82.58,1.2,1.2,0,0,1,.27.73.51.51,0,0,1-.17.39.6.6,0,0,1-.42.16.44.44,0,0,1-.35-.1c0-.06-.14-.2-.27-.4a1.34,1.34,0,0,0-.47-.45,1.76,1.76,0,0,0-.82-.15,1,1,0,0,0-.83.26,1.55,1.55,0,0,0-.23.83l.84.22.92.2.67.14a1.88,1.88,0,0,1,1,.55,1.49,1.49,0,0,1,.37,1,1.52,1.52,0,0,1-.23.8,1.59,1.59,0,0,1-.64.59,2.06,2.06,0,0,1-1,.21,2.67,2.67,0,0,1-1.08-.2,4.34,4.34,0,0,1-1-.6A3.32,3.32,0,0,1,211,241.29Zm.54-2.45a2.16,2.16,0,0,0,.2,1.06,1.28,1.28,0,0,0,.52.48,1.72,1.72,0,0,0,.78.18.85.85,0,0,0,.64-.23.7.7,0,0,0,.25-.55.59.59,0,0,0-.21-.48,1.13,1.13,0,0,0-.44-.24l-.83-.19a6.32,6.32,0,0,1-.91-.24Z" transform="translate(-39.73 -136.38)"/><path class="cls-4" d="M204.56,235.91a.66.66,0,0,1,.49-.2.6.6,0,0,1,.49.2.93.93,0,0,1,.17.61v6.14a1.45,1.45,0,0,1-.13.7.54.54,0,0,1-.53.25c-.45,0-.68-.32-.68-.94v-2.14a2.77,2.77,0,0,1-.79.72,2,2,0,0,1-1,.24,2.26,2.26,0,0,1-1.71-.77,2.8,2.8,0,0,1-.5-.92,3.61,3.61,0,0,1-.19-1.21,3.5,3.5,0,0,1,.32-1.54,2.36,2.36,0,0,1,.87-1,2.26,2.26,0,0,1,1.21-.34,2.06,2.06,0,0,1,1,.23,2.79,2.79,0,0,1,.84.73v-.17A.85.85,0,0,1,204.56,235.91Zm-2.8,3.66a1.35,1.35,0,0,0,.49.62,1.11,1.11,0,0,0,.65.2,1.24,1.24,0,0,0,1-.47,2,2,0,0,0,.4-1.32,2,2,0,0,0-.4-1.36,1.27,1.27,0,0,0-1-.47,1.1,1.1,0,0,0-.67.22,1.46,1.46,0,0,0-.48.62,2.53,2.53,0,0,0-.17,1A2.48,2.48,0,0,0,201.76,239.57Z" transform="translate(-39.73 -136.38)"/><path class="cls-4" d="M194.78,241.29a.61.61,0,0,1-.43.2.67.67,0,0,1-.47-.18.51.51,0,0,1-.21-.39,3.12,3.12,0,0,1,.13-.56,2.89,2.89,0,0,0,.14-.84c0-.29,0-.55,0-.78v-.85a3,3,0,0,1,.22-1.27,1.38,1.38,0,0,1,.76-.7,3.92,3.92,0,0,1,1.47-.22,3.65,3.65,0,0,1,1.41.23,1.8,1.8,0,0,1,.82.58,1.2,1.2,0,0,1,.27.73.48.48,0,0,1-.18.39.56.56,0,0,1-.41.16.44.44,0,0,1-.35-.1c-.05-.06-.14-.2-.27-.4a1.34,1.34,0,0,0-.47-.45,1.76,1.76,0,0,0-.82-.15,1,1,0,0,0-.83.26,1.47,1.47,0,0,0-.22.83l.83.22.92.2.67.14a1.88,1.88,0,0,1,1,.55,1.49,1.49,0,0,1,.37,1,1.52,1.52,0,0,1-.23.8,1.59,1.59,0,0,1-.64.59,2.06,2.06,0,0,1-1,.21,2.67,2.67,0,0,1-1.08-.2,4.34,4.34,0,0,1-1-.6A3.32,3.32,0,0,1,194.78,241.29Zm.55-2.45a2.17,2.17,0,0,0,.19,1.06,1.28,1.28,0,0,0,.52.48,1.72,1.72,0,0,0,.78.18.85.85,0,0,0,.64-.23.7.7,0,0,0,.25-.55.59.59,0,0,0-.21-.48,1.13,1.13,0,0,0-.44-.24l-.83-.19a5.79,5.79,0,0,1-.9-.24Z" transform="translate(-39.73 -136.38)"/><path class="cls-4" d="M192.11,241.27a.64.64,0,0,1-.51.22.69.69,0,0,1-.52-.21,1,1,0,0,1-.2-.65v-6.17a.89.89,0,0,1,.2-.65.65.65,0,0,1,.52-.22.63.63,0,0,1,.51.22,1,1,0,0,1,.19.65v6.17A.94.94,0,0,1,192.11,241.27Z" transform="translate(-39.73 -136.38)"/><path class="cls-4" d="M188,234.86a.64.64,0,0,1-.21-.51.65.65,0,0,1,.22-.52.74.74,0,0,1,1,0,.67.67,0,0,1,.22.5.64.64,0,0,1-.21.51.78.78,0,0,1-.51.19A.76.76,0,0,1,188,234.86Zm0,1.06a.68.68,0,0,1,.51-.21.66.66,0,0,1,.51.21.93.93,0,0,1,.2.64v4.07a.94.94,0,0,1-.2.64.64.64,0,0,1-.51.22.68.68,0,0,1-.51-.21.92.92,0,0,1-.21-.65v-4.11A.81.81,0,0,1,188,235.92Z" transform="translate(-39.73 -136.38)"/><path class="cls-4" d="M185,236.06a.61.61,0,0,1,.24-.26.67.67,0,0,1,.34-.09.6.6,0,0,1,.49.2.87.87,0,0,1,.17.61v4.11a.94.94,0,0,1-.19.64.65.65,0,0,1-.51.22.7.7,0,0,1-.52-.21,1,1,0,0,1-.2-.65v-1.78a4.49,4.49,0,0,0-.1-1.19,1.35,1.35,0,0,0-.46-.63,1.16,1.16,0,0,0-.69-.22.79.79,0,0,0-.78.37,2.39,2.39,0,0,0-.2,1.08v2.37a.94.94,0,0,1-.2.64.64.64,0,0,1-.51.22.66.66,0,0,1-.51-.21,1,1,0,0,1-.2-.65V238a7.64,7.64,0,0,1,0-.77A1.83,1.83,0,0,1,182,236a2.05,2.05,0,0,1,1-.24,2.26,2.26,0,0,1,1,.23,2.42,2.42,0,0,1,.82.73v-.18A.94.94,0,0,1,185,236.06Z" transform="translate(-39.73 -136.38)"/><path class="cls-4" d="M175.43,241.28a.6.6,0,0,1-.48.21.59.59,0,0,1-.48-.2.84.84,0,0,1-.19-.61V234.4a.93.93,0,0,1,.17-.6.63.63,0,0,1,.5-.21.6.6,0,0,1,.5.23,1,1,0,0,1,.17.66v2.1a3,3,0,0,1,.83-.65,2.28,2.28,0,0,1,1-.21,2.19,2.19,0,0,1,1.72.74,3.08,3.08,0,0,1,.65,2.08,4.06,4.06,0,0,1-.16,1.18,2.72,2.72,0,0,1-.49.94,2.23,2.23,0,0,1-.75.62,2.12,2.12,0,0,1-.94.21,2.37,2.37,0,0,1-.72-.1,2.18,2.18,0,0,1-.6-.32,3.07,3.07,0,0,1-.57-.53v.14A.85.85,0,0,1,175.43,241.28Zm2.82-3.65a1.43,1.43,0,0,0-.47-.64,1.24,1.24,0,0,0-.7-.22,1.16,1.16,0,0,0-.69.22,1.42,1.42,0,0,0-.5.62,2.29,2.29,0,0,0-.19,1,2.33,2.33,0,0,0,.19,1,1.35,1.35,0,0,0,.49.6,1.28,1.28,0,0,0,.69.19,1.2,1.2,0,0,0,.68-.2,1.37,1.37,0,0,0,.49-.61,2.47,2.47,0,0,0,.18-1A2.42,2.42,0,0,0,178.25,237.63Z" transform="translate(-39.73 -136.38)"/><path class="cls-4" d="M171.21,238.35a2.84,2.84,0,0,0-.15-.77,1,1,0,0,0-.3-.48.81.81,0,0,0-.52-.17,1.58,1.58,0,0,0-.52.1,2.35,2.35,0,0,1-.38.1A.57.57,0,0,1,169,237a.58.58,0,0,1-.18-.43.67.67,0,0,1,.42-.6,1.81,1.81,0,0,1,.87-.22,1.09,1.09,0,0,1,.72.22,2.49,2.49,0,0,1,.52.66,1.27,1.27,0,0,1,.17-.66.59.59,0,0,1,.52-.22q.69,0,.69,1v4a1,1,0,0,1-.2.65.66.66,0,0,1-.5.21.69.69,0,0,1-.52-.21.91.91,0,0,1-.2-.65v-1.19C171.26,239,171.24,238.65,171.21,238.35Z" transform="translate(-39.73 -136.38)"/><path class="cls-4" d="M163.09,237.43a2.55,2.55,0,0,1,.57-.92,2.52,2.52,0,0,1,.9-.59,3.13,3.13,0,0,1,1.17-.21,3.32,3.32,0,0,1,1.16.2,2.66,2.66,0,0,1,.9.59,2.47,2.47,0,0,1,.57.92,3.44,3.44,0,0,1,.2,1.18,3.34,3.34,0,0,1-.2,1.17,2.64,2.64,0,0,1-.57.92,2.54,2.54,0,0,1-.9.6,3.24,3.24,0,0,1-1.16.2,3.13,3.13,0,0,1-1.17-.2,2.66,2.66,0,0,1-.9-.59,2.59,2.59,0,0,1-.57-.93,3.38,3.38,0,0,1-.2-1.17A3.34,3.34,0,0,1,163.09,237.43ZM164.7,240a1.27,1.27,0,0,0,1,.49,1.23,1.23,0,0,0,.74-.23,1.37,1.37,0,0,0,.49-.63,2.91,2.91,0,0,0,0-2,1.36,1.36,0,0,0-.49-.64,1.26,1.26,0,0,0-.74-.22,1.24,1.24,0,0,0-1,.49,2.15,2.15,0,0,0-.38,1.35A2.19,2.19,0,0,0,164.7,240Z" transform="translate(-39.73 -136.38)"/><path class="cls-4" d="M156.7,237.43a1.33,1.33,0,0,0-.4-.45.92.92,0,0,0-.53-.16.65.65,0,0,0-.52.19.76.76,0,0,0-.21.46,4.81,4.81,0,0,0,0,.73v2.4a1,1,0,0,1-.21.67.75.75,0,0,1-1.06,0,.94.94,0,0,1-.21-.67v-2.78a2.89,2.89,0,0,1,.19-1.22,1.37,1.37,0,0,1,.63-.65,2,2,0,0,1,1-.23,1.94,1.94,0,0,1,.91.21,2.46,2.46,0,0,1,.78.65,1.58,1.58,0,0,1,.63-.65,1.92,1.92,0,0,1,.92-.21,2.06,2.06,0,0,1,.94.21,2.49,2.49,0,0,1,.8.65v-.14a.73.73,0,0,1,.19-.54.66.66,0,0,1,.49-.19.64.64,0,0,1,.49.21.91.91,0,0,1,.18.61v4.07a1,1,0,0,1-.21.67.66.66,0,0,1-.52.22.67.67,0,0,1-.53-.22,1,1,0,0,1-.2-.67v-1.93a3.32,3.32,0,0,0-.23-1.37.9.9,0,0,0-.92-.48.63.63,0,0,0-.51.19.94.94,0,0,0-.19.49,5.9,5.9,0,0,0,0,.83v2.27a1,1,0,0,1-.2.67.68.68,0,0,1-.53.22.67.67,0,0,1-.53-.22.94.94,0,0,1-.21-.67v-1.89A3.75,3.75,0,0,0,156.7,237.43Z" transform="translate(-39.73 -136.38)"/><path class="cls-4" d="M147.12,238.79c-.2-.1-.3-.34-.3-.69a2.36,2.36,0,0,1,.29-1.14,2.31,2.31,0,0,1,.9-.91,2.68,2.68,0,0,1,1.43-.35,3.32,3.32,0,0,1,1.16.2,2.43,2.43,0,0,1,.89.59,2.7,2.7,0,0,1,.55.93,3.68,3.68,0,0,1,.19,1.17,2.94,2.94,0,0,1-.76,2.12,2.86,2.86,0,0,1-2.14.78,3.43,3.43,0,0,1-1.06-.15,2.58,2.58,0,0,1-.76-.4,1.61,1.61,0,0,1-.46-.49.92.92,0,0,1-.15-.45.42.42,0,0,1,.13-.34.52.52,0,0,1,.36-.12.48.48,0,0,1,.31.09l.43.4a3.18,3.18,0,0,0,.37.27,1.38,1.38,0,0,0,.41.19,1.65,1.65,0,0,0,.46.06,1.29,1.29,0,0,0,.7-.19,1.36,1.36,0,0,0,.51-.55,2,2,0,0,0,.19-.86H148A1.9,1.9,0,0,1,147.12,238.79Zm3.24-1.73a1.13,1.13,0,0,0-.88-.37,1.19,1.19,0,0,0-.9.36,1.81,1.81,0,0,0-.39,1.09h2.58A1.85,1.85,0,0,0,150.36,237.06Z" transform="translate(-39.73 -136.38)"/><path class="cls-4" d="M145.5,236.22a.68.68,0,0,1-.49.2c-.33,0-.56-.19-.68-.59a2.25,2.25,0,0,0-.45-.85,1.32,1.32,0,0,0-1.65,0,.9.9,0,0,0-.31.7.79.79,0,0,0,.1.4,1.59,1.59,0,0,0,.25.33l.48.44a5.92,5.92,0,0,1,.61.58,1.8,1.8,0,0,1,.36.56,2,2,0,0,1,.13.76.68.68,0,0,1-.18.52.63.63,0,0,1-.46.18.59.59,0,0,1-.62-.54c0-.17-.06-.29-.08-.36l-.08-.2-.16-.23c-.07-.08-.17-.17-.29-.28-.42-.38-.72-.65-.89-.82a2.48,2.48,0,0,1-.42-.57,1.61,1.61,0,0,1-.18-.78,1.86,1.86,0,0,1,.31-1,2.18,2.18,0,0,1,.9-.76,3,3,0,0,1,1.33-.28,2.92,2.92,0,0,1,1.42.33,2.48,2.48,0,0,1,.93.85,1.9,1.9,0,0,1,.32,1A.66.66,0,0,1,145.5,236.22Zm-2.89,5.06a.75.75,0,0,1-.23-.58.74.74,0,0,1,.22-.55.82.82,0,0,1,1.12,0,.75.75,0,0,1,.23.55.73.73,0,0,1-.24.58.8.8,0,0,1-.55.2A.85.85,0,0,1,142.61,241.28Z" transform="translate(-39.73 -136.38)"/><path class="cls-9" d="M78.84,219.48A5.7,5.7,0,0,0,77,217.39,11.15,11.15,0,0,0,74.2,216a35.5,35.5,0,0,0-3.7-1.06c-1.09-.28-1.87-.49-2.35-.63a7.33,7.33,0,0,1-1.4-.59,3.44,3.44,0,0,1-1.09-.91,2.06,2.06,0,0,1-.4-1.26,2.41,2.41,0,0,1,1.17-2,5.11,5.11,0,0,1,3.06-.83,4.64,4.64,0,0,1,3,.76,6.24,6.24,0,0,1,1.59,2.14A5.39,5.39,0,0,0,75,213a1.76,1.76,0,0,0,1.28.42,2,2,0,0,0,1.54-.7,2.35,2.35,0,0,0,.62-1.58,4.42,4.42,0,0,0-.5-2,6.1,6.1,0,0,0-1.57-1.93,8.12,8.12,0,0,0-2.69-1.47,12.3,12.3,0,0,0-3.86-.55,12.79,12.79,0,0,0-4.85.84,6.87,6.87,0,0,0-3.16,2.38A6.08,6.08,0,0,0,60.73,212a5.77,5.77,0,0,0,1,3.51,7,7,0,0,0,2.79,2.23,22.54,22.54,0,0,0,4.36,1.42A30.84,30.84,0,0,1,72,220a4.67,4.67,0,0,1,1.9,1.14,2.69,2.69,0,0,1,.74,2,3.06,3.06,0,0,1-1.36,2.53,5.77,5.77,0,0,1-3.55,1,5.64,5.64,0,0,1-2.55-.5,4.09,4.09,0,0,1-1.51-1.28,9.19,9.19,0,0,1-1-1.94,4,4,0,0,0-.92-1.46,1.86,1.86,0,0,0-1.31-.5,2.15,2.15,0,0,0-2.2,2.16,5.93,5.93,0,0,0,1,3.16,7.78,7.78,0,0,0,2.69,2.6,11.54,11.54,0,0,0,5.91,1.36,12.37,12.37,0,0,0,5.16-1,7.49,7.49,0,0,0,3.31-2.74,7.07,7.07,0,0,0,1.13-4A6.6,6.6,0,0,0,78.84,219.48ZM55.12,206a2.34,2.34,0,0,0-1.81-.74,2.24,2.24,0,0,0-1.77.74,3.28,3.28,0,0,0-.65,2.23v13.39q0,4.77-3.26,4.77a2.9,2.9,0,0,1-1.88-.54,3.1,3.1,0,0,1-.94-1.31,15.67,15.67,0,0,1-.56-2,4,4,0,0,0-.76-1.75,1.87,1.87,0,0,0-1.47-.56,2.16,2.16,0,0,0-2.29,2.38A9.6,9.6,0,0,0,40.92,227a6,6,0,0,0,2.64,2.51,9.6,9.6,0,0,0,4.11.78,8.93,8.93,0,0,0,4.62-1.12A6.34,6.34,0,0,0,55,226a8.71,8.71,0,0,0,.64-2.34,24.65,24.65,0,0,0,.14-2.81V208.19A3.23,3.23,0,0,0,55.12,206Z" transform="translate(-39.73 -136.38)"/><path class="cls-9" d="M266.8,223.27a6.17,6.17,0,0,1-2.38,2.75,6.27,6.27,0,0,1-3.27.89,6.17,6.17,0,0,1-2.56-.52,5.78,5.78,0,0,1-2.06-1.55,7.36,7.36,0,0,1-1.4-2.62,12.12,12.12,0,0,1-.49-3.54,11.82,11.82,0,0,1,.49-3.49,7.3,7.3,0,0,1,1.35-2.56,5.68,5.68,0,0,1,2-1.52,6.3,6.3,0,0,1,2.58-.53,6.4,6.4,0,0,1,3.46.95,6,6,0,0,1,2.32,2.79,10.8,10.8,0,0,1,.82,4.36A10.64,10.64,0,0,1,266.8,223.27Zm-10.41-15.56a9.61,9.61,0,0,0-3.5,2.37,10.47,10.47,0,0,0-2.2,3.76,14.93,14.93,0,0,0-.76,4.84,15.58,15.58,0,0,0,.73,4.81,10.57,10.57,0,0,0,2.15,3.8,9.58,9.58,0,0,0,3.55,2.44,12.66,12.66,0,0,0,4.82.87,12.84,12.84,0,0,0,4.8-.84,9.44,9.44,0,0,0,3.53-2.44,10.51,10.51,0,0,0,2.16-3.77,15.33,15.33,0,0,0,.72-4.84,14.11,14.11,0,0,0-1.31-6.26,9.38,9.38,0,0,0-3.87-4.11,12.21,12.21,0,0,0-6.12-1.45A12.79,12.79,0,0,0,256.39,207.71Zm-10.16,13.82a2,2,0,0,0-1.43-.58,1.65,1.65,0,0,0-1.4.57,4.87,4.87,0,0,0-.74,1.48,6,6,0,0,1-2.09,2.92,5.65,5.65,0,0,1-3.38,1A5.8,5.8,0,0,1,234,226a5.55,5.55,0,0,1-2.13-2.65,11.45,11.45,0,0,1-.75-4.45,9.78,9.78,0,0,1,1.7-6.17,5.49,5.49,0,0,1,4.56-2.18,5.17,5.17,0,0,1,3,.85,7,7,0,0,1,2.14,2.55,5.55,5.55,0,0,0,1,1.45,1.89,1.89,0,0,0,1.34.42,1.78,1.78,0,0,0,1.36-.61,2,2,0,0,0,.56-1.4,5.44,5.44,0,0,0-1.16-3.09,9,9,0,0,0-3.33-2.75,10.75,10.75,0,0,0-5-1.11,11.27,11.27,0,0,0-4.3.82,10,10,0,0,0-3.52,2.37,10.38,10.38,0,0,0-2.3,3.74,14.22,14.22,0,0,0-.81,5,15.84,15.84,0,0,0,.32,3.22,13.27,13.27,0,0,0,1,2.85,11.5,11.5,0,0,0,1.55,2.42,9.3,9.3,0,0,0,2.23,1.92,9.46,9.46,0,0,0,2.7,1.07,14.61,14.61,0,0,0,3.3.34,10.48,10.48,0,0,0,4.19-.77,8.71,8.71,0,0,0,3-2,8.56,8.56,0,0,0,1.69-2.5,6.11,6.11,0,0,0,.54-2.37A2,2,0,0,0,246.23,221.53Zm-32.31-9.74,3.45,9.46h-6.85Zm6.32,17.05a5.26,5.26,0,0,0,.57,1,1.92,1.92,0,0,0,.66.54,2.07,2.07,0,0,0,.94.19,2.17,2.17,0,0,0,1.6-.66,2,2,0,0,0,.67-1.47A7.42,7.42,0,0,0,224,226l-6-14.8q-.42-1.11-.69-1.77a6.71,6.71,0,0,0-.67-1.24,3.1,3.1,0,0,0-1.05-1,3.18,3.18,0,0,0-1.62-.37,3.13,3.13,0,0,0-1.6.37,3,3,0,0,0-1,1,7.64,7.64,0,0,0-.75,1.49c-.24.6-.44,1.12-.6,1.55l-5.87,14.88c-.24.6-.41,1.06-.52,1.4a3.3,3.3,0,0,0-.15,1,2,2,0,0,0,.67,1.46,2.18,2.18,0,0,0,1.55.64,1.73,1.73,0,0,0,1.48-.6,10.11,10.11,0,0,0,1.1-2.32l1.09-2.94h9.33l1.09,2.87C219.87,228,220,228.38,220.24,228.84Zm-16.52-18.25a1.74,1.74,0,0,0,.59-1.38,1.8,1.8,0,0,0-.58-1.4,2.62,2.62,0,0,0-1.79-.53H187.18a2.63,2.63,0,0,0-1.75.52,1.94,1.94,0,0,0,0,2.79,2.55,2.55,0,0,0,1.77.52h5.06v16.66a3.07,3.07,0,0,0,.65,2.13,2.35,2.35,0,0,0,3.34,0,3.08,3.08,0,0,0,.64-2.14V211.11h5.07A2.63,2.63,0,0,0,203.72,210.59Z" transform="translate(-39.73 -136.38)"/><path class="cls-4" d="M337,210.59a1.77,1.77,0,0,0,.59-1.38,1.81,1.81,0,0,0-.59-1.4,2.6,2.6,0,0,0-1.79-.53H320.42a2.62,2.62,0,0,0-1.74.52,1.73,1.73,0,0,0-.61,1.41,1.8,1.8,0,0,0,.58,1.38,2.58,2.58,0,0,0,1.77.52h5.07v16.66a3,3,0,0,0,.65,2.13,2.35,2.35,0,0,0,3.34,0,3.13,3.13,0,0,0,.64-2.14V211.11h5.06A2.64,2.64,0,0,0,337,210.59Zm-28,1.2,3.46,9.46h-6.85Zm6.33,17.05a4.39,4.39,0,0,0,.57,1,1.8,1.8,0,0,0,.65.54,2.1,2.1,0,0,0,.94.19,2.21,2.21,0,0,0,1.61-.66,2.05,2.05,0,0,0,.66-1.47A7.33,7.33,0,0,0,319,226l-6-14.8c-.28-.74-.52-1.33-.7-1.77a6.71,6.71,0,0,0-.67-1.24,3.1,3.1,0,0,0-1.05-1,3.69,3.69,0,0,0-3.22,0,3.13,3.13,0,0,0-1.05,1,9,9,0,0,0-.75,1.49c-.23.6-.44,1.12-.6,1.55l-5.87,14.88c-.24.6-.41,1.06-.51,1.4a3,3,0,0,0-.16,1,2,2,0,0,0,.67,1.46,2.18,2.18,0,0,0,1.55.64,1.76,1.76,0,0,0,1.49-.6,10.66,10.66,0,0,0,1.09-2.32l1.1-2.94h9.32l1.09,2.87C314.89,228,315.06,228.38,315.27,228.84Zm-20-7.31a1.94,1.94,0,0,0-1.42-.58,1.66,1.66,0,0,0-1.41.57,5.11,5.11,0,0,0-.73,1.48,6.08,6.08,0,0,1-2.09,2.92,5.66,5.66,0,0,1-3.39,1A5.82,5.82,0,0,1,283,226a5.61,5.61,0,0,1-2.13-2.65,11.45,11.45,0,0,1-.75-4.45,9.85,9.85,0,0,1,1.7-6.17,5.49,5.49,0,0,1,4.56-2.18,5.18,5.18,0,0,1,3,.85,7,7,0,0,1,2.13,2.55,6.09,6.09,0,0,0,1,1.45,1.91,1.91,0,0,0,1.34.42,1.77,1.77,0,0,0,1.36-.61,2,2,0,0,0,.56-1.4,5.42,5.42,0,0,0-1.15-3.09,9,9,0,0,0-3.33-2.75,10.78,10.78,0,0,0-5-1.11,11.23,11.23,0,0,0-4.3.82,10,10,0,0,0-3.52,2.37,10.55,10.55,0,0,0-2.31,3.74,14.46,14.46,0,0,0-.8,5,15.16,15.16,0,0,0,.32,3.22,12.26,12.26,0,0,0,1,2.85,11.12,11.12,0,0,0,1.55,2.42,8.83,8.83,0,0,0,4.92,3,14.61,14.61,0,0,0,3.3.34,10.41,10.41,0,0,0,4.19-.77,8.69,8.69,0,0,0,4.66-4.49,6.11,6.11,0,0,0,.54-2.37A1.93,1.93,0,0,0,295.3,221.53Z" transform="translate(-39.73 -136.38)"/></svg>